<!DOCTYPE svg PUBLIC "-//W3C//DTD SVG 1.1//EN" "http://www.w3.org/Graphics/SVG/1.1/DTD/svg11.dtd">
<!-- Uploaded to: SVG Repo, www.svgrepo.com, Transformed by: SVG Repo Mixer Tools -->
<svg width="800px" height="800px" viewBox="-3.2 -3.2 38.40 38.40" id="Camada_1" version="1.1" xml:space="preserve" xmlns="http://www.w3.org/2000/svg" xmlns:xlink="http://www.w3.org/1999/xlink" fill="#747272" stroke="#747272">
<g id="SVGRepo_bgCarrier" stroke-width="0">
<path transform="translate(-3.2, -3.2), scale(1.2)" d="M16,27.13433463783825C18.324693143018067,27.810663457338038,20.29896790187801,31.580325084680897,22.405422185227195,30.386813780402186C24.647140538607093,29.116662219593564,22.374710937385263,25.10594388142351,23.58985988663109,22.83394053757658C24.43315055373502,21.257212666738884,27.325369237669143,21.553874595606377,28.012491319816615,19.90309503063524C28.68186038519594,18.294966281376286,27.46514283255548,16.504773383016893,26.911802972525994,14.853123293202922C26.432693926094704,13.423042872958552,25.871036850256548,12.030611897915398,24.96986752560734,10.821244569495324C24.117321947191932,9.677130205720305,22.67667313446168,9.13741136234852,21.808788451755607,8.004888595161846C20.57422020215181,6.3938719725817945,20.60108510245132,3.7361987011413724,18.809483859425097,2.7824176428549805C17.169286616755613,1.9092383748671522,15.088290612848942,2.861270352361857,13.342574263340127,3.4977948656069877C11.694800352975593,4.098607527141561,10.3913542137151,5.297249036431325,8.996457821947965,6.36045116687187C7.625301250990361,7.405558599949986,5.75401615409421,8.121973095640632,5.154849700650056,9.738549555268353C4.5418197468992645,11.392530325693054,6.000711961241354,13.175388041694045,5.820224738234666,14.930062505935695C5.640252946852708,16.679726007656516,3.680932706645457,18.157281262080797,4.1135281590587525,19.86214881983962C4.53747576307306,21.532935029545428,6.739438957300894,22.019994939758163,7.934447145192685,23.262256409966486C9.089069730056753,24.46253534055642,9.562265577692255,26.366337418989822,11.06368947199714,27.087134973304934C12.563499785992027,27.80715788646404,14.4025428506954,26.66958241398645,16,27.13433463783825" fill="#7ed0ec" strokewidth="0"/>
</g>
<g id="SVGRepo_tracerCarrier" stroke-linecap="round" stroke-linejoin="round"/>
<g id="SVGRepo_iconCarrier">
<style type="text/css"> .st0{fill-rule:evenodd;clip-rule:evenodd;} .st1{fill:#FFFFFF;} </style>
<path class="st0" d="M4.9,4.2c0.3-0.2,0.8-0.2,1,0.1l2.4,3c0.2,0.3,0.2,0.8-0.1,1c-0.3,0.2-0.8,0.2-1-0.1l-2.4-3 C4.5,4.9,4.5,4.4,4.9,4.2z M27.1,4.2c0.3,0.2,0.4,0.7,0.1,1l-2.4,3c-0.2,0.3-0.7,0.4-1,0.1c-0.3-0.2-0.4-0.7-0.1-1l2.4-3 C26.4,4,26.8,3.9,27.1,4.2z"/>
<path d="M7.5,13.6h17c0.6,0,1,0.4,1,1v12.3c0,0.6-0.4,1-1,1h-17c-0.6,0-1-0.4-1-1V14.6C6.5,14.1,6.9,13.6,7.5,13.6z"/>
<path d="M7.5,6.5h17c0.6,0,1,0.4,1,1v3.9c0,0.6-0.4,1-1,1h-17c-0.6,0-1-0.4-1-1V7.5C6.5,6.9,6.9,6.5,7.5,6.5z"/>
<circle class="st1" cx="16" cy="20.9" r="5.6"/>
<circle cx="16" cy="20.9" r="4.2"/>
<path class="st1" d="M16,18.1c-1.3,0-2.4,0.9-2.7,2.1h1.5c0.3-0.4,0.7-0.8,1.3-0.8c0.8,0,1.5,0.7,1.5,1.5s-0.7,1.5-1.5,1.5 c-0.6,0-1.1-0.3-1.3-0.8h-1.4c0.3,1.2,1.4,2.2,2.8,2.2c1.6,0,2.8-1.3,2.8-2.8C18.8,19.4,17.5,18.1,16,18.1L16,18.1z"/>
<path class="st1" d="M12.7,9.5c0,0.8-0.7,1.5-1.5,1.5s-1.5-0.7-1.5-1.5c0-0.8,0.7-1.5,1.5-1.5S12.7,8.6,12.7,9.5z"/>
<path class="st1" d="M22.2,9.5c0,0.8-0.7,1.5-1.5,1.5s-1.5-0.7-1.5-1.5c0-0.8,0.7-1.5,1.5-1.5S22.2,8.6,22.2,9.5z"/>
</g>
</svg>