<svg xmlns="http://www.w3.org/2000/svg"  viewBox="0 0 100 100" width="100px" height="100px"><path d="M 50 22 C 37.749877 22 28.374518 22.479105 21.255859 23.144531 C 16.283683 23.60844 12.284881 27.386293 11.441406 32.296875 C 10.595033 37.218381 10 43.123318 10 50 C 10 56.876682 10.594125 62.782761 11.439453 67.705078 L 11.441406 67.705078 C 12.285931 72.615385 16.283959 76.390487 21.255859 76.855469 C 28.375333 77.519877 37.749877 78 50 78 C 62.250123 78 71.625482 77.520895 78.744141 76.855469 C 83.716317 76.39156 87.715119 72.613707 88.558594 67.703125 C 89.404967 62.781619 90 56.876682 90 50 C 90 43.123318 89.405875 37.217239 88.560547 32.294922 L 88.558594 32.294922 C 87.714116 27.384615 83.716041 23.609513 78.744141 23.144531 C 71.62462 22.480123 62.250123 22 50 22 z M 50 24 C 62.197877 24 71.512114 24.477174 78.558594 25.134766 C 82.632693 25.515784 85.892415 28.591072 86.587891 32.634766 C 87.414563 37.448448 88 43.238682 88 50 C 88 56.761318 87.415517 62.552741 86.587891 67.365234 C 85.893366 71.408652 82.632417 74.48319 78.558594 74.863281 C 71.513252 75.521855 62.197877 76 50 76 C 37.802123 76 28.487886 75.522826 21.441406 74.865234 C 17.367307 74.484216 14.107585 71.408928 13.412109 67.365234 C 12.585437 62.551552 12 56.761318 12 50 C 12 43.238682 12.584483 37.447259 13.412109 32.634766 C 14.106634 28.591348 17.367583 25.51681 21.441406 25.136719 C 28.486748 24.478145 37.802123 24 50 24 z M 50 27 C 39.541577 27 30.289863 27.358775 22.455078 28.060547 A 0.5000688 0.5000688 0 1 0 22.544922 29.056641 C 30.340141 28.358413 39.564423 28 50 28 C 55.511778 28 60.675977 28.102135 65.480469 28.298828 A 0.50005 0.50005 0 1 0 65.519531 27.300781 C 60.700025 27.103474 55.524222 27 50 27 z M 68.474609 27.4375 A 0.50005 0.50005 0 0 0 68.474609 28.435547 C 70.192133 28.523367 71.850954 28.627409 73.464844 28.742188 A 0.50026033 0.50026033 0 1 0 73.535156 27.744141 C 71.915048 27.628919 70.249867 27.525678 68.525391 27.4375 A 0.50005 0.50005 0 0 0 68.474609 27.4375 z M 76.441406 27.974609 A 0.50030896 0.50030896 0 0 0 76.457031 28.974609 C 76.792032 29.002949 77.134648 29.028141 77.455078 29.056641 A 0.5000688 0.5000688 0 1 0 77.544922 28.060547 C 77.213352 28.031047 76.869968 28.006176 76.542969 27.978516 A 0.50005 0.50005 0 0 0 76.492188 27.974609 A 0.50030896 0.50030896 0 0 0 76.441406 27.974609 z M 42.511719 38 A 0.50005 0.50005 0 0 0 42 38.5 L 42 61.5 A 0.50005 0.50005 0 0 0 42.75 61.933594 L 62.75 50.433594 A 0.50005 0.50005 0 0 0 62.75 49.566406 L 42.75 38.066406 A 0.50005 0.50005 0 0 0 42.511719 38 z M 43 39.365234 L 61.496094 50 L 43 60.634766 L 43 39.365234 z"/></svg>